<?xml version="1.0" standalone="no"?>
<!DOCTYPE svg PUBLIC "-//W3C//DTD SVG 20010904//EN"
 "http://www.w3.org/TR/2001/REC-SVG-20010904/DTD/svg10.dtd">
<svg version="1.0" xmlns="http://www.w3.org/2000/svg"
 width="88.000000pt" height="88.000000pt" viewBox="0 0 88.000000 88.000000"
 preserveAspectRatio="xMidYMid meet">

<g transform="translate(0.000000,88.000000) scale(0.100000,-0.100000)"
fill="#000000" stroke="none">
<path d="M708 750 c-20 -11 -65 -51 -100 -90 -64 -71 -92 -91 -62 -44 16 24
16 26 -1 42 -16 14 -17 14 -7 1 19 -25 4 -51 -27 -47 -34 4 -42 43 -11 53 12
4 19 9 17 12 -3 2 -15 -1 -27 -7 -17 -9 -21 -18 -17 -40 5 -25 3 -28 -25 -34
-17 -3 -42 -6 -55 -6 -15 0 -62 -27 -119 -70 -51 -38 -98 -70 -104 -70 -13 0
-50 -37 -50 -50 0 -16 19 -11 41 11 27 27 153 99 174 99 18 0 15 -19 -21 -124
-13 -38 -21 -72 -19 -76 3 -5 1 -19 -4 -33 -8 -20 -4 -32 20 -65 29 -39 29
-42 15 -71 -17 -32 -21 -61 -8 -61 4 0 18 16 31 35 l24 35 -27 51 c-30 54 -29
77 4 119 30 37 40 12 39 -91 -1 -48 2 -92 5 -98 16 -25 22 -8 22 57 -2 158 5
302 13 302 5 0 15 -24 21 -52 10 -44 9 -61 -3 -96 -13 -37 -13 -43 -1 -38 11
4 14 -8 14 -59 0 -35 -5 -75 -11 -89 -7 -14 -8 -33 -5 -43 15 -36 34 16 42
108 3 49 10 89 15 89 5 0 9 12 9 26 0 23 1 24 16 9 15 -15 15 -20 0 -74 -20
-72 -20 -110 -1 -118 25 -9 30 5 17 40 -11 29 -9 38 20 99 32 63 32 67 15 78
-23 14 -47 70 -47 108 0 67 145 242 215 258 43 11 60 34 23 34 -12 -1 -39 -10
-60 -20z"/>
<path d="M382 668 c-17 -17 -15 -33 5 -49 15 -13 15 -12 3 8 -11 18 -12 24 -1
37 16 19 10 21 -7 4z"/>
<path d="M441 662 c12 -21 12 -25 -6 -39 -11 -8 -14 -13 -6 -11 29 8 37 36 17
55 -18 17 -18 17 -5 -5z"/>
</g>
</svg>
